<svg xmlns="http://www.w3.org/2000/svg" xml:space="preserve" width="1500" height="1500" data-id="lg_LO2vWb2cUcy8ePk7rQ" data-version="1" viewBox="0 0 1500 1500"><path fill="#fff" stroke="transparent" d="M0 0h1500v1500H0z"/><g data-padding="20"><g transform="translate(-566.726 -579.897)scale(1.71604)"><rect width="585.073" height="152.55" x="214.574" y="654.456" fill="none" rx="0" ry="0" transform="matrix(.96 0 0 .96 280.48 73.48)"/><path fill="#c1c1c1" d="M518.552 815.215h-8.813v-90.72h8.813v43.286l31.238-43.286h10.109l-31.757 42.643 37.978 48.077h-10.11l-37.457-47.434Zm123.11 0-8.553-23.971h-39.917l-8.294 23.97h-8.42l32.785-90.72h7.91l33.955 90.72Zm-28.895-80.87L595.4 784.764h35.376Zm100.57-9.85-.654 7.776h-37.708v34.09h34.992l-.653 7.775h-34.34v41.079h-8.812v-90.72Zm64.665 82.944-.643 7.776h-49.124v-90.72h8.813v82.944Zm76.205 7.776-8.554-23.971h-39.917l-8.294 23.97h-8.42l32.785-90.72h7.91l33.955 90.72Zm-28.896-80.87-17.367 50.419h35.376Zm121.055 80.87H936.9l-51.705-79.056.643 79.056h-8.16v-90.72h9.456l51.58 79.056-.518-79.056h8.17Zm17.366 0v-90.72h23.328q27.216 0 35.51 22.81 3.11 8.294 3.11 21.84t-2.984 22.809q-2.976 9.264-8.42 14.448t-13.161 6.998q-7.71 1.815-17.3 1.815Zm22.676-83.587h-13.863v76.464h10.627q6.74 0 12.96-1.172 20.736-3.628 20.736-38.486 0-19.574-9.072-28.906-7.91-7.9-21.388-7.9"/></g><path fill="transparent" stroke="transparent" stroke-width="1.779" d="M250 620.107h1000v259.786H250z"/></g></svg>